<svg width="32" height="32" viewBox="0 0 32 32" fill="none" xmlns="http://www.w3.org/2000/svg">
<path d="M18.3125 0.0374997C18.1938 0.0562497 17.7438 0.125 17.3188 0.19375C13.4875 0.825 10.1125 3.125 8.50002 6.2C8.20002 6.775 7.75002 8.0125 7.66252 8.51875C7.62502 8.73125 7.63127 8.75625 7.73127 8.725C7.79377 8.7125 8.08127 8.625 8.37502 8.5375C9.96252 8.06875 11.3938 7.86875 13.2375 7.86875C15.1875 7.86875 16.7375 8.11875 18.5625 8.725C22.7625 10.1187 26.0375 13.0937 27.475 16.8125C27.8625 17.825 28.1875 19.3687 28.1875 20.2312V20.625H29.8C31.5688 20.625 31.6125 20.6125 31.8813 20.2125C32.0375 19.975 32.0438 19.4 31.8938 19.1875C31.8313 19.1 31.3 18.4625 30.7 17.7687L29.6188 16.5062L29.9125 16.1437C30.9188 14.9125 31.6375 13.3375 31.9063 11.7875C32.0313 11.05 32.0313 9.56875 31.9 8.80625C31.2375 4.9375 27.95 1.65625 23.5438 0.46875C22.2625 0.11875 21.6938 0.0499997 20.0625 0.0312497C19.2188 0.0187497 18.4313 0.0249997 18.3125 0.0374997Z" fill="white"/>
<path d="M11.1875 9.78724C8.55 10.1247 5.9625 11.206 3.99375 12.7997C3.275 13.381 2.2625 14.4747 1.7625 15.206C1 16.331 0.5125 17.4185 0.20625 18.6872C-0.025 19.6622 -0.06875 21.3497 0.11875 22.431C0.4125 24.1747 1.31875 26.1247 2.375 27.331L2.64375 27.631L2.51875 27.7685C1.8625 28.4935 0.125 30.5122 0.06875 30.6122C0.03125 30.681 0 30.8872 0 31.0685C0 31.456 0.15625 31.7435 0.45 31.8997C0.64375 31.9997 1.15 32.006 8.09375 31.9872L15.5313 31.9685L16.2188 31.8247C20.7313 30.8622 24.625 27.6372 25.9063 23.7872C26.2813 22.656 26.3438 22.2435 26.3438 20.781C26.3438 19.6372 26.325 19.3872 26.2 18.8185C25.4688 15.556 23.1688 12.806 19.775 11.1497C18.3625 10.456 16.5125 9.92474 14.925 9.75599C14.1 9.66224 11.9938 9.68099 11.1875 9.78724ZM8.15 18.9122C8.49375 19.031 8.975 19.4747 9.15625 19.8435C9.25 20.031 9.28125 20.2247 9.28125 20.6247C9.28125 21.2435 9.175 21.5122 8.78125 21.906C8.3875 22.2997 8.11875 22.406 7.5 22.406C6.88125 22.406 6.6125 22.2997 6.21875 21.906C5.825 21.5122 5.71875 21.2435 5.71875 20.6247C5.71875 20.0435 5.8375 19.7185 6.175 19.356C6.6375 18.8622 7.4625 18.681 8.15 18.9122ZM13.8375 18.9122C14.1813 19.031 14.6625 19.4747 14.8438 19.8435C14.9375 20.031 14.9688 20.2247 14.9688 20.6247C14.9688 21.2435 14.8625 21.5122 14.4688 21.906C14.075 22.2997 13.8063 22.406 13.1875 22.406C12.5688 22.406 12.3 22.2997 11.9063 21.906C11.5625 21.5685 11.4188 21.2372 11.3875 20.7372C11.3313 19.8685 11.7563 19.2247 12.5938 18.8935C12.8688 18.7872 13.4938 18.7997 13.8375 18.9122ZM19.525 18.9122C19.8688 19.031 20.35 19.4747 20.5313 19.8435C20.625 20.031 20.6563 20.2247 20.6563 20.6247C20.6563 21.2435 20.55 21.5122 20.1563 21.906C19.7625 22.2997 19.4938 22.406 18.875 22.406C18.2563 22.406 17.9875 22.2997 17.5938 21.906C17.25 21.5685 17.1063 21.2372 17.075 20.7372C17.0188 19.8685 17.4438 19.2247 18.2813 18.8935C18.5563 18.7872 19.1813 18.7997 19.525 18.9122Z" fill="white"/>
</svg>
