<svg width="30" height="28" viewBox="0 0 30 28" fill="none" xmlns="http://www.w3.org/2000/svg">
<path d="M3.23425 0.640625C1.99206 0.96875 1.10144 1.95312 0.925655 3.19531C0.738156 4.58984 1.38855 5.85547 2.60729 6.44141C3.19323 6.72266 3.53893 6.79297 4.30065 6.79297C5.94713 6.79297 7.12487 6.01953 7.59362 4.625C7.76354 4.12109 7.74596 3.14258 7.54674 2.59766C7.18346 1.56641 6.39245 0.863281 5.32018 0.611328C4.79284 0.488281 3.76745 0.499999 3.23425 0.640625Z" fill="#8A8A8D"/>
<path d="M20.9473 8.9375C19.5645 9.24805 18.041 10.2207 16.9453 11.5039L16.6992 11.791V10.5195V9.25391H13.6523H10.6055V18.3359V27.418H13.6523H16.6992V22.127C16.6992 19.0039 16.7227 16.6719 16.7578 16.4316C16.8516 15.7871 17.2031 15.125 17.748 14.5801C18.416 13.9121 19.0488 13.6484 19.9805 13.6484C21.4512 13.6484 22.3477 14.3867 22.8047 15.9688L22.9395 16.4316L22.957 21.9219L22.9746 27.418H26.0156H29.0625V21.7637C29.0625 18.166 29.0391 15.8984 28.998 15.5352C28.7754 13.4551 28.1309 11.9258 26.9883 10.7305C26.1797 9.88672 25.2539 9.35938 24.0293 9.03711C23.5488 8.9082 23.3086 8.88477 22.4121 8.86719C21.6094 8.84961 21.2578 8.86719 20.9473 8.9375Z" fill="#8A8A8D"/>
<path d="M1.23047 18.3359V27.418H4.27734H7.32422V18.3359V9.25391H4.27734H1.23047V18.3359Z" fill="#8A8A8D"/>
</svg>
