<svg width="14" height="15" viewBox="0 0 14 15" fill="none" xmlns="http://www.w3.org/2000/svg">
<path d="M2.81641 0.0615234C1.77188 0.295898 0.907812 0.981445 0.412891 1.96875C0.224219 2.34082 0.101172 2.72754 0.0273438 3.17578C0.0109375 3.29004 0 4.79004 0 7.50879C0 11.5928 0 11.6719 0.0574219 11.9619C0.207813 12.7588 0.560547 13.4473 1.09375 13.9834C1.58594 14.4785 2.15469 14.792 2.83555 14.9385C3.10625 15 3.18008 15 7 15C10.8199 15 10.8938 15 11.1645 14.9385C11.9082 14.7773 12.5508 14.3994 13.0512 13.8281C13.5133 13.3008 13.8059 12.6914 13.9426 11.9619C14 11.6719 14 11.5928 14 7.50879C14 4.79004 13.9891 3.29004 13.9727 3.17578C13.7758 1.95996 13.1086 0.966797 12.116 0.416016C11.7988 0.240234 11.5363 0.140625 11.1645 0.0615234C10.8938 0 10.8254 0 6.98086 0.00292969C3.19102 0.00292969 3.06797 0.00585938 2.81641 0.0615234ZM11.0605 1.3418C11.9191 1.59961 12.5234 2.25293 12.7477 3.16406L12.8105 3.41309V7.5V11.5869L12.7477 11.8359C12.5207 12.7529 11.9027 13.415 11.0469 13.6582L10.8145 13.7256H7H3.18555L2.95312 13.6582C2.09727 13.415 1.4793 12.7529 1.25234 11.8359L1.18945 11.5869V7.5V3.41309L1.25234 3.16406C1.4957 2.17676 2.19297 1.48535 3.12539 1.30371C3.28398 1.27148 4.08242 1.26562 7.08203 1.26855L10.8418 1.27441L11.0605 1.3418Z" fill="white"/>
<path d="M10.4699 2.55761C10.3824 2.5957 10.284 2.65429 10.2457 2.68652C9.81639 3.04687 9.79452 3.74999 10.1992 4.14257C10.3387 4.27734 10.4262 4.32421 10.6258 4.36523C11.025 4.45019 11.416 4.23632 11.591 3.84082C11.6922 3.60937 11.6922 3.24609 11.5965 3.03222C11.509 2.84765 11.3422 2.66894 11.1699 2.57812C10.9703 2.47265 10.675 2.46386 10.4699 2.55761Z" fill="white"/>
<path d="M6.37932 3.79404C5.87893 3.89365 5.30198 4.16025 4.90276 4.47958C4.63479 4.69345 4.26292 5.10654 4.09612 5.37607C3.81995 5.82431 3.62307 6.34873 3.54104 6.84677C3.48909 7.18076 3.48909 7.81943 3.54104 8.15341C3.66135 8.87997 3.98127 9.55966 4.45706 10.0899C4.98206 10.6759 5.66018 11.0685 6.39026 11.2061C6.70198 11.2618 7.29807 11.2618 7.60979 11.2061C9.05081 10.9337 10.2047 9.69736 10.459 8.15341C10.511 7.81943 10.511 7.18076 10.459 6.84677C10.377 6.3458 10.1801 5.82431 9.9012 5.37607C9.73714 5.10654 9.36253 4.69052 9.10276 4.48251C8.68987 4.15439 8.11838 3.89072 7.60979 3.79404C7.31721 3.7413 6.65823 3.7413 6.37932 3.79404ZM7.56057 5.09775C8.38909 5.32626 9.02073 6.00009 9.24495 6.89951C9.29143 7.08115 9.3051 7.21884 9.3051 7.50009C9.3051 7.78134 9.29143 7.91904 9.24495 8.10068C9.02073 9.00009 8.40003 9.6622 7.56057 9.90537C7.25159 9.99619 6.74846 9.99619 6.43948 9.90537C5.60002 9.6622 4.97932 9.00009 4.7551 8.10068C4.67307 7.77255 4.67307 7.22763 4.7551 6.89951C5.0887 5.56064 6.33557 4.76083 7.56057 5.09775Z" fill="white"/>
</svg>
