<svg width="9" height="15" viewBox="0 0 9 15" fill="none" xmlns="http://www.w3.org/2000/svg">
<path d="M5.20625 0.046875C4.4 0.18457 3.68125 0.568359 3.22187 1.10449C2.9875 1.37988 2.72187 1.875 2.60938 2.24414C2.4625 2.72754 2.4375 3.03809 2.4375 4.38574V5.625H1.26562H0.09375V6.95801V8.29102H1.26562H2.4375V11.6455V15H3.875H5.3125V11.6455V8.29102L6.42812 8.28516L7.54688 8.27637L7.70625 7.06055C7.79688 6.39258 7.875 5.79492 7.88438 5.7334L7.9 5.625H6.60625H5.3125V4.57617C5.3125 3.42773 5.33437 3.25488 5.49062 2.98242C5.59063 2.80664 5.7875 2.66309 6.01562 2.59277C6.24062 2.52246 6.66875 2.49316 7.4625 2.49023H8.15625V1.29199V0.09375L7.97813 0.0761719C7.12813 -0.00878906 5.63125 -0.0263672 5.20625 0.046875Z" fill="white"/>
</svg>
