<svg width="14" height="14" viewBox="0 0 14 14" fill="none" xmlns="http://www.w3.org/2000/svg">
<path d="M13.1523 0.356365C13.084 0.378241 12.0012 0.850116 10.7461 1.40012C9.49102 1.95012 6.75391 3.14699 4.66211 4.06262C2.57031 4.97824 0.757422 5.77199 0.628906 5.83137C0.196875 6.03137 0 6.23762 0 6.50012C0 6.66887 0.0683594 6.77824 0.246094 6.88762C0.366406 6.96262 3.54648 8.11887 3.66406 8.13137C3.68594 8.13449 5.36758 6.94699 7.40195 5.49074C9.43359 4.03762 11.1371 2.82512 11.1863 2.79387C11.2957 2.73137 11.468 2.71887 11.5172 2.77512C11.5445 2.80637 11.5418 2.82824 11.5117 2.88762C11.4898 2.92824 10.1227 4.34387 8.47656 6.03137L5.48242 9.10324L5.38398 10.6845C5.3293 11.5532 5.27461 12.397 5.26641 12.5532L5.24727 12.8439H5.36758C5.58633 12.8439 5.71484 12.7282 6.61445 11.7439L7.46211 10.8157L9.08359 12.172C10.1527 13.0689 10.757 13.5532 10.8555 13.6001C10.9539 13.6439 11.0687 13.6689 11.1836 13.6689C11.4707 13.672 11.6402 13.5282 11.7824 13.1564C11.8098 13.0782 12.3238 10.4001 12.9199 7.20324C13.9891 1.47199 14.0055 1.38762 13.9945 1.09074C13.9863 0.821991 13.9754 0.77199 13.9016 0.637615C13.7566 0.368865 13.4504 0.253241 13.1523 0.356365Z" fill="white"/>
</svg>
