<svg width="14" height="11" viewBox="0 0 14 11" fill="none" xmlns="http://www.w3.org/2000/svg">
<path d="M4.89468 0.460962C3.46461 0.510767 2.45015 0.589869 1.97711 0.692408C1.38648 0.821314 0.902497 1.27835 0.716559 1.88186C0.508747 2.5469 0.377497 4.58596 0.434918 6.19436C0.500543 7.94631 0.629059 8.82229 0.888825 9.24124C1.19507 9.73635 1.58609 9.97952 2.24234 10.0821C3.40992 10.2637 6.38492 10.3487 8.8732 10.2754C10.8966 10.2139 11.8947 10.1201 12.3185 9.95022C12.5236 9.86819 12.8271 9.63088 12.9775 9.43459C13.2892 9.02737 13.3986 8.54397 13.5134 7.0967C13.5599 6.51077 13.5599 4.16995 13.5134 3.58108C13.4478 2.73147 13.3685 2.20413 13.2591 1.8467C13.1087 1.36038 12.6658 0.903345 12.1955 0.753931C11.8373 0.636744 11.0334 0.548853 9.78922 0.490259C8.93882 0.449244 5.8107 0.428736 4.89468 0.460962ZM7.37203 4.32229C8.25797 4.86721 9.00171 5.32717 9.02632 5.34182C9.06187 5.36233 8.68453 5.60549 7.40757 6.39358C6.49156 6.95608 5.72867 7.4219 5.715 7.42776C5.69586 7.43655 5.68765 6.71584 5.68765 5.36819C5.68765 3.62209 5.69312 3.29983 5.72593 3.31155C5.74507 3.32034 6.48609 3.77444 7.37203 4.32229Z" fill="white"/>
</svg>
