<svg width="30" height="21" viewBox="0 0 30 21" fill="none" xmlns="http://www.w3.org/2000/svg">
<path d="M10.4885 0.921985C7.42402 1.02159 5.25019 1.1798 4.23652 1.38488C2.97089 1.64269 1.93378 2.55675 1.53534 3.76378C1.09003 5.09386 0.808782 9.17198 0.931829 12.3888C1.07245 15.8927 1.34784 17.6446 1.90448 18.4825C2.56073 19.4728 3.39863 19.9591 4.80488 20.1642C7.30683 20.5275 13.6818 20.6974 19.0139 20.5509C23.3498 20.4278 25.4885 20.2403 26.3967 19.9005C26.8361 19.7364 27.4865 19.2618 27.8088 18.8693C28.4768 18.0548 28.7111 17.088 28.9572 14.1935C29.0568 13.0216 29.0568 8.33995 28.9572 7.16222C28.8166 5.463 28.6467 4.40831 28.4123 3.69347C28.09 2.72081 27.1408 1.80675 26.133 1.50792C25.3654 1.27355 23.6428 1.09777 20.9768 0.980578C19.1545 0.898547 12.4514 0.857532 10.4885 0.921985ZM15.7971 8.64464C17.6955 9.73448 19.2893 10.6544 19.342 10.6837C19.4182 10.7247 18.6096 11.211 15.8732 12.7872C13.9103 13.9122 12.2756 14.8439 12.2463 14.8556C12.2053 14.8732 12.1877 13.4318 12.1877 10.7364C12.1877 7.24425 12.1994 6.59972 12.2697 6.62316C12.3107 6.64073 13.8986 7.54894 15.7971 8.64464Z" fill="#8A8A8D"/>
</svg>
